<mxfile host="app.diagrams.net" agent="Mozilla/5.0 (Windows NT 10.0; Win64; x64) AppleWebKit/537.36 (KHTML, like Gecko) Chrome/127.0.0.0 Safari/537.36" version="24.7.6">
  <diagram id="R2lEEEUBdFMjLlhIrx00" name="Page-1">
    <mxGraphModel dx="2043" dy="1815" grid="1" gridSize="10" guides="1" tooltips="1" connect="1" arrows="1" fold="1" page="1" pageScale="1" pageWidth="850" pageHeight="1100" math="0" shadow="0" extFonts="Permanent Marker^https://fonts.googleapis.com/css?family=Permanent+Marker">
      <root>
        <mxCell id="0" />
        <mxCell id="1" parent="0" />
        <mxCell id="030wjntbdd0vXokFga_K-1" value="User" style="rounded=0;whiteSpace=wrap;html=1;" parent="1" vertex="1">
          <mxGeometry x="160" y="200" width="120" height="40" as="geometry" />
        </mxCell>
        <mxCell id="030wjntbdd0vXokFga_K-4" value="" style="endArrow=none;html=1;rounded=0;entryX=0;entryY=0;entryDx=0;entryDy=0;" parent="1" target="030wjntbdd0vXokFga_K-1" edge="1">
          <mxGeometry width="50" height="50" relative="1" as="geometry">
            <mxPoint x="70" y="140" as="sourcePoint" />
            <mxPoint x="470" y="300" as="targetPoint" />
          </mxGeometry>
        </mxCell>
        <mxCell id="030wjntbdd0vXokFga_K-5" value="userTag" style="ellipse;whiteSpace=wrap;html=1;" parent="1" vertex="1">
          <mxGeometry x="-90" y="-335" width="120" height="40" as="geometry" />
        </mxCell>
        <mxCell id="030wjntbdd0vXokFga_K-6" value="" style="endArrow=none;html=1;rounded=0;" parent="1" edge="1">
          <mxGeometry width="50" height="50" relative="1" as="geometry">
            <mxPoint x="70" y="142.5" as="sourcePoint" />
            <mxPoint x="70" y="-517.5" as="targetPoint" />
          </mxGeometry>
        </mxCell>
        <mxCell id="030wjntbdd0vXokFga_K-8" value="firstName" style="ellipse;whiteSpace=wrap;html=1;" parent="1" vertex="1">
          <mxGeometry x="-90" y="-285" width="120" height="40" as="geometry" />
        </mxCell>
        <mxCell id="030wjntbdd0vXokFga_K-9" value="lastName" style="ellipse;whiteSpace=wrap;html=1;" parent="1" vertex="1">
          <mxGeometry x="-90" y="-235" width="120" height="40" as="geometry" />
        </mxCell>
        <mxCell id="030wjntbdd0vXokFga_K-10" value="userId" style="ellipse;whiteSpace=wrap;html=1;" parent="1" vertex="1">
          <mxGeometry x="-90" y="-485" width="120" height="40" as="geometry" />
        </mxCell>
        <mxCell id="030wjntbdd0vXokFga_K-12" value="hasSub" style="ellipse;whiteSpace=wrap;html=1;" parent="1" vertex="1">
          <mxGeometry x="-90" y="20" width="120" height="40" as="geometry" />
        </mxCell>
        <mxCell id="030wjntbdd0vXokFga_K-13" value="userTag" style="ellipse;whiteSpace=wrap;html=1;" parent="1" vertex="1">
          <mxGeometry x="-90" y="-485" width="120" height="40" as="geometry" />
        </mxCell>
        <mxCell id="030wjntbdd0vXokFga_K-14" value="dateOfBirth" style="ellipse;whiteSpace=wrap;html=1;" parent="1" vertex="1">
          <mxGeometry x="-90" y="-235" width="120" height="40" as="geometry" />
        </mxCell>
        <mxCell id="030wjntbdd0vXokFga_K-15" value="firstName" style="ellipse;whiteSpace=wrap;html=1;" parent="1" vertex="1">
          <mxGeometry x="-90" y="-335" width="120" height="40" as="geometry" />
        </mxCell>
        <mxCell id="030wjntbdd0vXokFga_K-16" value="lastName" style="ellipse;whiteSpace=wrap;html=1;" parent="1" vertex="1">
          <mxGeometry x="-90" y="-285" width="120" height="40" as="geometry" />
        </mxCell>
        <mxCell id="030wjntbdd0vXokFga_K-17" value="userId" style="ellipse;whiteSpace=wrap;html=1;" parent="1" vertex="1">
          <mxGeometry x="-90" y="-535" width="120" height="40" as="geometry" />
        </mxCell>
        <mxCell id="030wjntbdd0vXokFga_K-19" value="xp" style="ellipse;whiteSpace=wrap;html=1;" parent="1" vertex="1">
          <mxGeometry x="-90" y="-27.5" width="120" height="40" as="geometry" />
        </mxCell>
        <mxCell id="030wjntbdd0vXokFga_K-20" value="email" style="ellipse;whiteSpace=wrap;html=1;" parent="1" vertex="1">
          <mxGeometry x="-90" y="-435" width="120" height="40" as="geometry" />
        </mxCell>
        <mxCell id="030wjntbdd0vXokFga_K-21" value="password" style="ellipse;whiteSpace=wrap;html=1;" parent="1" vertex="1">
          <mxGeometry x="-90" y="-385" width="120" height="40" as="geometry" />
        </mxCell>
        <mxCell id="030wjntbdd0vXokFga_K-22" value="isActive" style="ellipse;whiteSpace=wrap;html=1;" parent="1" vertex="1">
          <mxGeometry x="-90" y="70" width="120" height="40" as="geometry" />
        </mxCell>
        <mxCell id="030wjntbdd0vXokFga_K-24" value="imgProfile" style="ellipse;whiteSpace=wrap;html=1;" parent="1" vertex="1">
          <mxGeometry x="-90" y="-180" width="120" height="40" as="geometry" />
        </mxCell>
        <mxCell id="030wjntbdd0vXokFga_K-25" value="bio" style="ellipse;whiteSpace=wrap;html=1;" parent="1" vertex="1">
          <mxGeometry x="-90" y="-130" width="120" height="40" as="geometry" />
        </mxCell>
        <mxCell id="030wjntbdd0vXokFga_K-27" value="Country" style="rounded=0;whiteSpace=wrap;html=1;" parent="1" vertex="1">
          <mxGeometry x="160" y="437.5" width="120" height="40" as="geometry" />
        </mxCell>
        <mxCell id="030wjntbdd0vXokFga_K-28" value="" style="endArrow=none;html=1;rounded=0;exitX=1;exitY=0.5;exitDx=0;exitDy=0;" parent="1" source="030wjntbdd0vXokFga_K-22" edge="1">
          <mxGeometry width="50" height="50" relative="1" as="geometry">
            <mxPoint x="60" y="132.5" as="sourcePoint" />
            <mxPoint x="70" y="90.5" as="targetPoint" />
          </mxGeometry>
        </mxCell>
        <mxCell id="030wjntbdd0vXokFga_K-29" value="" style="endArrow=none;html=1;rounded=0;exitX=1;exitY=0.5;exitDx=0;exitDy=0;" parent="1" source="030wjntbdd0vXokFga_K-17" edge="1">
          <mxGeometry width="50" height="50" relative="1" as="geometry">
            <mxPoint x="80" y="-587.5" as="sourcePoint" />
            <mxPoint x="70" y="-514.5" as="targetPoint" />
          </mxGeometry>
        </mxCell>
        <mxCell id="030wjntbdd0vXokFga_K-33" value="" style="endArrow=none;html=1;rounded=0;" parent="1" source="030wjntbdd0vXokFga_K-12" edge="1">
          <mxGeometry width="50" height="50" relative="1" as="geometry">
            <mxPoint x="30" y="90" as="sourcePoint" />
            <mxPoint x="70" y="42.5" as="targetPoint" />
          </mxGeometry>
        </mxCell>
        <mxCell id="030wjntbdd0vXokFga_K-34" value="" style="endArrow=none;html=1;rounded=0;" parent="1" source="030wjntbdd0vXokFga_K-19" edge="1">
          <mxGeometry width="50" height="50" relative="1" as="geometry">
            <mxPoint x="30" y="40" as="sourcePoint" />
            <mxPoint x="70" y="-9.5" as="targetPoint" />
          </mxGeometry>
        </mxCell>
        <mxCell id="030wjntbdd0vXokFga_K-35" value="" style="endArrow=none;html=1;rounded=0;" parent="1" source="030wjntbdd0vXokFga_K-25" edge="1">
          <mxGeometry width="50" height="50" relative="1" as="geometry">
            <mxPoint x="30" y="-60" as="sourcePoint" />
            <mxPoint x="70" y="-109.5" as="targetPoint" />
          </mxGeometry>
        </mxCell>
        <mxCell id="030wjntbdd0vXokFga_K-36" value="" style="endArrow=none;html=1;rounded=0;" parent="1" source="030wjntbdd0vXokFga_K-24" edge="1">
          <mxGeometry width="50" height="50" relative="1" as="geometry">
            <mxPoint x="30" y="-110" as="sourcePoint" />
            <mxPoint x="70" y="-157.5" as="targetPoint" />
          </mxGeometry>
        </mxCell>
        <mxCell id="030wjntbdd0vXokFga_K-37" value="" style="endArrow=none;html=1;rounded=0;" parent="1" source="030wjntbdd0vXokFga_K-14" edge="1">
          <mxGeometry width="50" height="50" relative="1" as="geometry">
            <mxPoint x="30" y="-165" as="sourcePoint" />
            <mxPoint x="70" y="-217.5" as="targetPoint" />
          </mxGeometry>
        </mxCell>
        <mxCell id="030wjntbdd0vXokFga_K-38" value="" style="endArrow=none;html=1;rounded=0;exitX=1;exitY=0.5;exitDx=0;exitDy=0;" parent="1" source="030wjntbdd0vXokFga_K-16" edge="1">
          <mxGeometry width="50" height="50" relative="1" as="geometry">
            <mxPoint x="80" y="-177.5" as="sourcePoint" />
            <mxPoint x="70" y="-264.5" as="targetPoint" />
          </mxGeometry>
        </mxCell>
        <mxCell id="030wjntbdd0vXokFga_K-39" value="" style="endArrow=none;html=1;rounded=0;" parent="1" source="030wjntbdd0vXokFga_K-15" edge="1">
          <mxGeometry width="50" height="50" relative="1" as="geometry">
            <mxPoint x="30" y="-265" as="sourcePoint" />
            <mxPoint x="70" y="-314.5" as="targetPoint" />
          </mxGeometry>
        </mxCell>
        <mxCell id="030wjntbdd0vXokFga_K-40" value="" style="endArrow=none;html=1;rounded=0;" parent="1" source="030wjntbdd0vXokFga_K-21" edge="1">
          <mxGeometry width="50" height="50" relative="1" as="geometry">
            <mxPoint x="30" y="-315" as="sourcePoint" />
            <mxPoint x="70" y="-364.5" as="targetPoint" />
          </mxGeometry>
        </mxCell>
        <mxCell id="030wjntbdd0vXokFga_K-41" value="" style="endArrow=none;html=1;rounded=0;" parent="1" source="030wjntbdd0vXokFga_K-20" edge="1">
          <mxGeometry width="50" height="50" relative="1" as="geometry">
            <mxPoint x="30" y="-365" as="sourcePoint" />
            <mxPoint x="70" y="-414.5" as="targetPoint" />
          </mxGeometry>
        </mxCell>
        <mxCell id="030wjntbdd0vXokFga_K-42" value="" style="endArrow=none;html=1;rounded=0;" parent="1" source="030wjntbdd0vXokFga_K-13" edge="1">
          <mxGeometry width="50" height="50" relative="1" as="geometry">
            <mxPoint x="30" y="-415" as="sourcePoint" />
            <mxPoint x="70" y="-467.5" as="targetPoint" />
          </mxGeometry>
        </mxCell>
        <mxCell id="030wjntbdd0vXokFga_K-43" value="Has" style="rhombus;whiteSpace=wrap;html=1;" parent="1" vertex="1">
          <mxGeometry x="180" y="297.5" width="80" height="80" as="geometry" />
        </mxCell>
        <mxCell id="030wjntbdd0vXokFga_K-44" value="" style="endArrow=none;html=1;rounded=0;" parent="1" source="030wjntbdd0vXokFga_K-1" edge="1">
          <mxGeometry width="50" height="50" relative="1" as="geometry">
            <mxPoint x="220" y="290" as="sourcePoint" />
            <mxPoint x="220" y="300" as="targetPoint" />
          </mxGeometry>
        </mxCell>
        <mxCell id="030wjntbdd0vXokFga_K-45" value="" style="endArrow=none;html=1;rounded=0;exitX=0.5;exitY=0;exitDx=0;exitDy=0;entryX=0.5;entryY=1;entryDx=0;entryDy=0;" parent="1" source="030wjntbdd0vXokFga_K-27" target="030wjntbdd0vXokFga_K-43" edge="1">
          <mxGeometry width="50" height="50" relative="1" as="geometry">
            <mxPoint x="220" y="437.5000000000002" as="sourcePoint" />
            <mxPoint x="260" y="410" as="targetPoint" />
          </mxGeometry>
        </mxCell>
        <mxCell id="030wjntbdd0vXokFga_K-46" value="countryId" style="ellipse;whiteSpace=wrap;html=1;" parent="1" vertex="1">
          <mxGeometry x="170" y="490" width="120" height="40" as="geometry" />
        </mxCell>
        <mxCell id="030wjntbdd0vXokFga_K-47" value="level" style="ellipse;whiteSpace=wrap;html=1;" parent="1" vertex="1">
          <mxGeometry x="-90" y="-80" width="120" height="40" as="geometry" />
        </mxCell>
        <mxCell id="030wjntbdd0vXokFga_K-48" value="" style="endArrow=none;html=1;rounded=0;" parent="1" source="030wjntbdd0vXokFga_K-47" edge="1">
          <mxGeometry width="50" height="50" relative="1" as="geometry">
            <mxPoint x="30" y="-10" as="sourcePoint" />
            <mxPoint x="70" y="-57.5" as="targetPoint" />
          </mxGeometry>
        </mxCell>
        <mxCell id="030wjntbdd0vXokFga_K-49" value="totalHours" style="ellipse;whiteSpace=wrap;html=1;" parent="1" vertex="1">
          <mxGeometry x="-90" y="122.5" width="120" height="40" as="geometry" />
        </mxCell>
        <mxCell id="030wjntbdd0vXokFga_K-50" value="" style="endArrow=none;html=1;rounded=0;exitX=1;exitY=0.5;exitDx=0;exitDy=0;" parent="1" source="030wjntbdd0vXokFga_K-49" edge="1">
          <mxGeometry width="50" height="50" relative="1" as="geometry">
            <mxPoint x="60" y="185" as="sourcePoint" />
            <mxPoint x="70" y="143" as="targetPoint" />
          </mxGeometry>
        </mxCell>
        <mxCell id="030wjntbdd0vXokFga_K-51" value="" style="endArrow=none;html=1;rounded=0;entryX=0;entryY=1;entryDx=0;entryDy=0;" parent="1" target="030wjntbdd0vXokFga_K-27" edge="1">
          <mxGeometry width="50" height="50" relative="1" as="geometry">
            <mxPoint x="160" y="610" as="sourcePoint" />
            <mxPoint x="200" y="480" as="targetPoint" />
          </mxGeometry>
        </mxCell>
        <mxCell id="030wjntbdd0vXokFga_K-52" value="countryName" style="ellipse;whiteSpace=wrap;html=1;" parent="1" vertex="1">
          <mxGeometry x="170" y="540" width="120" height="40" as="geometry" />
        </mxCell>
        <mxCell id="030wjntbdd0vXokFga_K-53" value="" style="endArrow=none;html=1;rounded=0;" parent="1" source="030wjntbdd0vXokFga_K-52" edge="1">
          <mxGeometry width="50" height="50" relative="1" as="geometry">
            <mxPoint x="109.28932188134524" y="610" as="sourcePoint" />
            <mxPoint x="160" y="560" as="targetPoint" />
          </mxGeometry>
        </mxCell>
        <mxCell id="030wjntbdd0vXokFga_K-54" value="" style="endArrow=none;html=1;rounded=0;entryX=0;entryY=0.5;entryDx=0;entryDy=0;" parent="1" target="030wjntbdd0vXokFga_K-46" edge="1">
          <mxGeometry width="50" height="50" relative="1" as="geometry">
            <mxPoint x="160" y="510" as="sourcePoint" />
            <mxPoint x="230" y="510" as="targetPoint" />
          </mxGeometry>
        </mxCell>
        <mxCell id="030wjntbdd0vXokFga_K-56" value="(1, 1)&lt;span style=&quot;color: rgba(0, 0, 0, 0); font-family: monospace; font-size: 0px; text-align: start; text-wrap: nowrap;&quot;&gt;%3CmxGraphModel%3E%3Croot%3E%3CmxCell%20id%3D%220%22%2F%3E%3CmxCell%20id%3D%221%22%20parent%3D%220%22%2F%3E%3CmxCell%20id%3D%222%22%20value%3D%22countryName%22%20style%3D%22ellipse%3BwhiteSpace%3Dwrap%3Bhtml%3D1%3B%22%20vertex%3D%221%22%20parent%3D%221%22%3E%3CmxGeometry%20x%3D%22170%22%20y%3D%22540%22%20width%3D%22120%22%20height%3D%2240%22%20as%3D%22geometry%22%2F%3E%3C%2FmxCell%3E%3CmxCell%20id%3D%223%22%20value%3D%22%22%20style%3D%22endArrow%3Dnone%3Bhtml%3D1%3Brounded%3D0%3B%22%20edge%3D%221%22%20source%3D%222%22%20parent%3D%221%22%3E%3CmxGeometry%20width%3D%2250%22%20height%3D%2250%22%20relative%3D%221%22%20as%3D%22geometry%22%3E%3CmxPoint%20x%3D%22109.28932188134524%22%20y%3D%22610%22%20as%3D%22sourcePoint%22%2F%3E%3CmxPoint%20x%3D%22160%22%20y%3D%22560%22%20as%3D%22targetPoint%22%2F%3E%3C%2FmxGeometry%3E%3C%2FmxCell%3E%3C%2Froot%3E%3C%2FmxGraphModel%3E&lt;/span&gt;" style="text;html=1;align=center;verticalAlign=middle;whiteSpace=wrap;rounded=0;" parent="1" vertex="1">
          <mxGeometry x="160" y="407.5" width="50" height="22.5" as="geometry" />
        </mxCell>
        <mxCell id="030wjntbdd0vXokFga_K-58" value="countryCode" style="ellipse;whiteSpace=wrap;html=1;" parent="1" vertex="1">
          <mxGeometry x="170" y="590" width="120" height="40" as="geometry" />
        </mxCell>
        <mxCell id="030wjntbdd0vXokFga_K-59" value="" style="endArrow=none;html=1;rounded=0;" parent="1" source="030wjntbdd0vXokFga_K-58" edge="1">
          <mxGeometry width="50" height="50" relative="1" as="geometry">
            <mxPoint x="109.28932188134524" y="660" as="sourcePoint" />
            <mxPoint x="160" y="610" as="targetPoint" />
          </mxGeometry>
        </mxCell>
        <mxCell id="030wjntbdd0vXokFga_K-60" value="(0, N)&lt;span style=&quot;color: rgba(0, 0, 0, 0); font-family: monospace; font-size: 0px; text-align: start; text-wrap: nowrap;&quot;&gt;%3CmxGraphModel%3E%3Croot%3E%3CmxCell%20id%3D%220%22%2F%3E%3CmxCell%20id%3D%221%22%20parent%3D%220%22%2F%3E%3CmxCell%20id%3D%222%22%20value%3D%22countryName%22%20style%3D%22ellipse%3BwhiteSpace%3Dwrap%3Bhtml%3D1%3B%22%20vertex%3D%221%22%20parent%3D%221%22%3E%3CmxGeometry%20x%3D%22170%22%20y%3D%22540%22%20width%3D%22120%22%20height%3D%2240%22%20as%3D%22geometry%22%2F%3E%3C%2FmxCell%3E%3CmxCell%20id%3D%223%22%20value%3D%22%22%20style%3D%22endArrow%3Dnone%3Bhtml%3D1%3Brounded%3D0%3B%22%20edge%3D%221%22%20source%3D%222%22%20parent%3D%221%22%3E%3CmxGeometry%20width%3D%2250%22%20height%3D%2250%22%20relative%3D%221%22%20as%3D%22geometry%22%3E%3CmxPoint%20x%3D%22109.28932188134524%22%20y%3D%22610%22%20as%3D%22sourcePoint%22%2F%3E%3CmxPoint%20x%3D%22160%22%20y%3D%22560%22%20as%3D%22targetPoint%22%2F%3E%3C%2FmxGeometry%3E%3C%2FmxCell%3E%3C%2Froot%3E%3C%2FmxGraphModel%3E&lt;/span&gt;" style="text;html=1;align=center;verticalAlign=middle;whiteSpace=wrap;rounded=0;" parent="1" vertex="1">
          <mxGeometry x="170" y="250" width="50" height="22.5" as="geometry" />
        </mxCell>
        <mxCell id="030wjntbdd0vXokFga_K-61" value="1:N&lt;span style=&quot;color: rgba(0, 0, 0, 0); font-family: monospace; font-size: 0px; text-align: start; text-wrap: nowrap;&quot;&gt;%3CmxGraphModel%3E%3Croot%3E%3CmxCell%20id%3D%220%22%2F%3E%3CmxCell%20id%3D%221%22%20parent%3D%220%22%2F%3E%3CmxCell%20id%3D%222%22%20value%3D%22countryName%22%20style%3D%22ellipse%3BwhiteSpace%3Dwrap%3Bhtml%3D1%3B%22%20vertex%3D%221%22%20parent%3D%221%22%3E%3CmxGeometry%20x%3D%22170%22%20y%3D%22540%22%20width%3D%22120%22%20height%3D%2240%22%20as%3D%22geometry%22%2F%3E%3C%2FmxCell%3E%3CmxCell%20id%3D%223%22%20value%3D%22%22%20style%3D%22endArrow%3Dnone%3Bhtml%3D1%3Brounded%3D0%3B%22%20edge%3D%221%22%20source%3D%222%22%20parent%3D%221%22%3E%3CmxGeometry%20width%3D%2250%22%20height%3D%2250%22%20relative%3D%221%22%20as%3D%22geometry%22%3E%3CmxPoint%20x%3D%22109.28932188134524%22%20y%3D%22610%22%20as%3D%22sourcePoint%22%2F%3E%3CmxPoint%20x%3D%22160%22%20y%3D%22560%22%20as%3D%22targetPoint%22%2F%3E%3C%2FmxGeometry%3E%3C%2FmxCell%3E%3C%2Froot%3E%3C%2FmxGraphModel%3E&lt;/span&gt;" style="text;html=1;align=center;verticalAlign=middle;whiteSpace=wrap;rounded=0;" parent="1" vertex="1">
          <mxGeometry x="130" y="326.25" width="50" height="22.5" as="geometry" />
        </mxCell>
        <mxCell id="030wjntbdd0vXokFga_K-62" value="Earns" style="rhombus;whiteSpace=wrap;html=1;" parent="1" vertex="1">
          <mxGeometry x="180" y="12.5" width="80" height="80" as="geometry" />
        </mxCell>
        <mxCell id="030wjntbdd0vXokFga_K-63" value="" style="endArrow=none;html=1;rounded=0;entryX=0.5;entryY=0;entryDx=0;entryDy=0;" parent="1" source="030wjntbdd0vXokFga_K-62" target="030wjntbdd0vXokFga_K-1" edge="1">
          <mxGeometry width="50" height="50" relative="1" as="geometry">
            <mxPoint x="220" y="142.5" as="sourcePoint" />
            <mxPoint x="220" y="163.21067811865476" as="targetPoint" />
          </mxGeometry>
        </mxCell>
        <mxCell id="030wjntbdd0vXokFga_K-64" value="Badge" style="rounded=0;whiteSpace=wrap;html=1;" parent="1" vertex="1">
          <mxGeometry x="160" y="-117.5" width="120" height="40" as="geometry" />
        </mxCell>
        <mxCell id="030wjntbdd0vXokFga_K-65" value="" style="endArrow=none;html=1;rounded=0;entryX=0.5;entryY=1;entryDx=0;entryDy=0;" parent="1" source="030wjntbdd0vXokFga_K-62" target="030wjntbdd0vXokFga_K-64" edge="1">
          <mxGeometry width="50" height="50" relative="1" as="geometry">
            <mxPoint x="220" y="-8.210678118654755" as="sourcePoint" />
            <mxPoint x="220" y="-58.210678118654755" as="targetPoint" />
          </mxGeometry>
        </mxCell>
        <mxCell id="030wjntbdd0vXokFga_K-66" value="badgeId" style="ellipse;whiteSpace=wrap;html=1;" parent="1" vertex="1">
          <mxGeometry x="185" y="-180" width="120" height="40" as="geometry" />
        </mxCell>
        <mxCell id="030wjntbdd0vXokFga_K-67" value="badgeName" style="ellipse;whiteSpace=wrap;html=1;" parent="1" vertex="1">
          <mxGeometry x="185" y="-230" width="120" height="40" as="geometry" />
        </mxCell>
        <mxCell id="030wjntbdd0vXokFga_K-68" value="badgeDescription" style="ellipse;whiteSpace=wrap;html=1;" parent="1" vertex="1">
          <mxGeometry x="185" y="-280" width="120" height="40" as="geometry" />
        </mxCell>
        <mxCell id="030wjntbdd0vXokFga_K-69" value="imgBadge" style="ellipse;whiteSpace=wrap;html=1;" parent="1" vertex="1">
          <mxGeometry x="185" y="-330" width="120" height="40" as="geometry" />
        </mxCell>
        <mxCell id="030wjntbdd0vXokFga_K-70" value="isActive" style="ellipse;whiteSpace=wrap;html=1;" parent="1" vertex="1">
          <mxGeometry x="185" y="-380" width="120" height="40" as="geometry" />
        </mxCell>
        <mxCell id="030wjntbdd0vXokFga_K-71" value="creationDate" style="ellipse;whiteSpace=wrap;html=1;" parent="1" vertex="1">
          <mxGeometry x="185" y="-430" width="120" height="40" as="geometry" />
        </mxCell>
        <mxCell id="030wjntbdd0vXokFga_K-72" value="" style="endArrow=none;html=1;rounded=0;exitX=0;exitY=0;exitDx=0;exitDy=0;" parent="1" source="030wjntbdd0vXokFga_K-64" edge="1">
          <mxGeometry width="50" height="50" relative="1" as="geometry">
            <mxPoint x="140" y="-120" as="sourcePoint" />
            <mxPoint x="160" y="-410" as="targetPoint" />
          </mxGeometry>
        </mxCell>
        <mxCell id="030wjntbdd0vXokFga_K-73" value="" style="endArrow=none;html=1;rounded=0;" parent="1" source="030wjntbdd0vXokFga_K-71" edge="1">
          <mxGeometry width="50" height="50" relative="1" as="geometry">
            <mxPoint x="114.28932188134524" y="-360" as="sourcePoint" />
            <mxPoint x="160" y="-410" as="targetPoint" />
          </mxGeometry>
        </mxCell>
        <mxCell id="030wjntbdd0vXokFga_K-74" value="" style="endArrow=none;html=1;rounded=0;" parent="1" source="030wjntbdd0vXokFga_K-70" edge="1">
          <mxGeometry width="50" height="50" relative="1" as="geometry">
            <mxPoint x="114.28932188134524" y="-310" as="sourcePoint" />
            <mxPoint x="160" y="-360" as="targetPoint" />
          </mxGeometry>
        </mxCell>
        <mxCell id="030wjntbdd0vXokFga_K-76" value="" style="endArrow=none;html=1;rounded=0;" parent="1" source="030wjntbdd0vXokFga_K-69" edge="1">
          <mxGeometry width="50" height="50" relative="1" as="geometry">
            <mxPoint x="114.28932188134524" y="-260" as="sourcePoint" />
            <mxPoint x="160" y="-310" as="targetPoint" />
          </mxGeometry>
        </mxCell>
        <mxCell id="030wjntbdd0vXokFga_K-77" value="" style="endArrow=none;html=1;rounded=0;" parent="1" source="030wjntbdd0vXokFga_K-68" edge="1">
          <mxGeometry width="50" height="50" relative="1" as="geometry">
            <mxPoint x="114.28932188134524" y="-210" as="sourcePoint" />
            <mxPoint x="160" y="-260" as="targetPoint" />
          </mxGeometry>
        </mxCell>
        <mxCell id="030wjntbdd0vXokFga_K-80" value="" style="endArrow=none;html=1;rounded=0;" parent="1" source="030wjntbdd0vXokFga_K-66" edge="1">
          <mxGeometry width="50" height="50" relative="1" as="geometry">
            <mxPoint x="114.28932188134524" y="-110" as="sourcePoint" />
            <mxPoint x="160" y="-160" as="targetPoint" />
          </mxGeometry>
        </mxCell>
        <mxCell id="030wjntbdd0vXokFga_K-81" value="" style="endArrow=none;html=1;rounded=0;" parent="1" source="030wjntbdd0vXokFga_K-67" edge="1">
          <mxGeometry width="50" height="50" relative="1" as="geometry">
            <mxPoint x="114.28932188134524" y="-160" as="sourcePoint" />
            <mxPoint x="160" y="-210" as="targetPoint" />
          </mxGeometry>
        </mxCell>
        <mxCell id="030wjntbdd0vXokFga_K-82" value="(0, N)&lt;span style=&quot;color: rgba(0, 0, 0, 0); font-family: monospace; font-size: 0px; text-align: start; text-wrap: nowrap;&quot;&gt;%3CmxGraphModel%3E%3Croot%3E%3CmxCell%20id%3D%220%22%2F%3E%3CmxCell%20id%3D%221%22%20parent%3D%220%22%2F%3E%3CmxCell%20id%3D%222%22%20value%3D%22countryName%22%20style%3D%22ellipse%3BwhiteSpace%3Dwrap%3Bhtml%3D1%3B%22%20vertex%3D%221%22%20parent%3D%221%22%3E%3CmxGeometry%20x%3D%22170%22%20y%3D%22540%22%20width%3D%22120%22%20height%3D%2240%22%20as%3D%22geometry%22%2F%3E%3C%2FmxCell%3E%3CmxCell%20id%3D%223%22%20value%3D%22%22%20style%3D%22endArrow%3Dnone%3Bhtml%3D1%3Brounded%3D0%3B%22%20edge%3D%221%22%20source%3D%222%22%20parent%3D%221%22%3E%3CmxGeometry%20width%3D%2250%22%20height%3D%2250%22%20relative%3D%221%22%20as%3D%22geometry%22%3E%3CmxPoint%20x%3D%22109.28932188134524%22%20y%3D%22610%22%20as%3D%22sourcePoint%22%2F%3E%3CmxPoint%20x%3D%22160%22%20y%3D%22560%22%20as%3D%22targetPoint%22%2F%3E%3C%2FmxGeometry%3E%3C%2FmxCell%3E%3C%2Froot%3E%3C%2FmxGraphModel%3E&lt;/span&gt;" style="text;html=1;align=center;verticalAlign=middle;whiteSpace=wrap;rounded=0;" parent="1" vertex="1">
          <mxGeometry x="170" y="172.5" width="50" height="22.5" as="geometry" />
        </mxCell>
        <mxCell id="030wjntbdd0vXokFga_K-83" value="(0, N)&lt;span style=&quot;color: rgba(0, 0, 0, 0); font-family: monospace; font-size: 0px; text-align: start; text-wrap: nowrap;&quot;&gt;%3CmxGraphModel%3E%3Croot%3E%3CmxCell%20id%3D%220%22%2F%3E%3CmxCell%20id%3D%221%22%20parent%3D%220%22%2F%3E%3CmxCell%20id%3D%222%22%20value%3D%22countryName%22%20style%3D%22ellipse%3BwhiteSpace%3Dwrap%3Bhtml%3D1%3B%22%20vertex%3D%221%22%20parent%3D%221%22%3E%3CmxGeometry%20x%3D%22170%22%20y%3D%22540%22%20width%3D%22120%22%20height%3D%2240%22%20as%3D%22geometry%22%2F%3E%3C%2FmxCell%3E%3CmxCell%20id%3D%223%22%20value%3D%22%22%20style%3D%22endArrow%3Dnone%3Bhtml%3D1%3Brounded%3D0%3B%22%20edge%3D%221%22%20source%3D%222%22%20parent%3D%221%22%3E%3CmxGeometry%20width%3D%2250%22%20height%3D%2250%22%20relative%3D%221%22%20as%3D%22geometry%22%3E%3CmxPoint%20x%3D%22109.28932188134524%22%20y%3D%22610%22%20as%3D%22sourcePoint%22%2F%3E%3CmxPoint%20x%3D%22160%22%20y%3D%22560%22%20as%3D%22targetPoint%22%2F%3E%3C%2FmxGeometry%3E%3C%2FmxCell%3E%3C%2Froot%3E%3C%2FmxGraphModel%3E&lt;/span&gt;" style="text;html=1;align=center;verticalAlign=middle;whiteSpace=wrap;rounded=0;" parent="1" vertex="1">
          <mxGeometry x="170" y="-68.75" width="50" height="22.5" as="geometry" />
        </mxCell>
        <mxCell id="030wjntbdd0vXokFga_K-84" value="N:M" style="text;html=1;align=center;verticalAlign=middle;whiteSpace=wrap;rounded=0;" parent="1" vertex="1">
          <mxGeometry x="130" y="41.25" width="50" height="22.5" as="geometry" />
        </mxCell>
        <mxCell id="030wjntbdd0vXokFga_K-86" value="isVisible" style="ellipse;whiteSpace=wrap;html=1;" parent="1" vertex="1">
          <mxGeometry x="300" y="-10" width="120" height="40" as="geometry" />
        </mxCell>
        <mxCell id="030wjntbdd0vXokFga_K-87" value="earnedDate" style="ellipse;whiteSpace=wrap;html=1;" parent="1" vertex="1">
          <mxGeometry x="300" y="92.5" width="120" height="40" as="geometry" />
        </mxCell>
        <mxCell id="030wjntbdd0vXokFga_K-88" value="" style="endArrow=none;html=1;rounded=0;exitX=1;exitY=1;exitDx=0;exitDy=0;entryX=0;entryY=0.5;entryDx=0;entryDy=0;" parent="1" source="030wjntbdd0vXokFga_K-62" target="030wjntbdd0vXokFga_K-87" edge="1">
          <mxGeometry width="50" height="50" relative="1" as="geometry">
            <mxPoint x="230" y="100" as="sourcePoint" />
            <mxPoint x="280" y="50" as="targetPoint" />
          </mxGeometry>
        </mxCell>
        <mxCell id="030wjntbdd0vXokFga_K-89" value="" style="endArrow=none;html=1;rounded=0;entryX=0;entryY=0.5;entryDx=0;entryDy=0;exitX=1;exitY=0;exitDx=0;exitDy=0;" parent="1" source="030wjntbdd0vXokFga_K-62" target="030wjntbdd0vXokFga_K-86" edge="1">
          <mxGeometry width="50" height="50" relative="1" as="geometry">
            <mxPoint x="230" y="100" as="sourcePoint" />
            <mxPoint x="280" y="50" as="targetPoint" />
          </mxGeometry>
        </mxCell>
        <mxCell id="030wjntbdd0vXokFga_K-90" value="Note" style="rounded=0;whiteSpace=wrap;html=1;" parent="1" vertex="1">
          <mxGeometry x="440" y="327.5" width="120" height="40" as="geometry" />
        </mxCell>
        <mxCell id="030wjntbdd0vXokFga_K-91" value="noteId" style="ellipse;whiteSpace=wrap;html=1;" parent="1" vertex="1">
          <mxGeometry x="470" y="380" width="120" height="40" as="geometry" />
        </mxCell>
        <mxCell id="030wjntbdd0vXokFga_K-92" value="" style="endArrow=none;html=1;rounded=0;entryX=0;entryY=1;entryDx=0;entryDy=0;" parent="1" target="030wjntbdd0vXokFga_K-90" edge="1">
          <mxGeometry width="50" height="50" relative="1" as="geometry">
            <mxPoint x="440" y="550" as="sourcePoint" />
            <mxPoint x="470" y="390" as="targetPoint" />
          </mxGeometry>
        </mxCell>
        <mxCell id="030wjntbdd0vXokFga_K-93" value="" style="endArrow=none;html=1;rounded=0;" parent="1" source="030wjntbdd0vXokFga_K-91" edge="1">
          <mxGeometry width="50" height="50" relative="1" as="geometry">
            <mxPoint x="399.28932188134524" y="450" as="sourcePoint" />
            <mxPoint x="440" y="400" as="targetPoint" />
          </mxGeometry>
        </mxCell>
        <mxCell id="030wjntbdd0vXokFga_K-94" value="noteContent" style="ellipse;whiteSpace=wrap;html=1;" parent="1" vertex="1">
          <mxGeometry x="470" y="430" width="120" height="40" as="geometry" />
        </mxCell>
        <mxCell id="030wjntbdd0vXokFga_K-95" value="" style="endArrow=none;html=1;rounded=0;" parent="1" source="030wjntbdd0vXokFga_K-94" edge="1">
          <mxGeometry width="50" height="50" relative="1" as="geometry">
            <mxPoint x="399.28932188134524" y="500" as="sourcePoint" />
            <mxPoint x="440" y="450" as="targetPoint" />
          </mxGeometry>
        </mxCell>
        <mxCell id="030wjntbdd0vXokFga_K-96" value="creationDate" style="ellipse;whiteSpace=wrap;html=1;" parent="1" vertex="1">
          <mxGeometry x="470" y="477.5" width="120" height="40" as="geometry" />
        </mxCell>
        <mxCell id="030wjntbdd0vXokFga_K-97" value="" style="endArrow=none;html=1;rounded=0;" parent="1" source="030wjntbdd0vXokFga_K-96" edge="1">
          <mxGeometry width="50" height="50" relative="1" as="geometry">
            <mxPoint x="399.28932188134524" y="547.5" as="sourcePoint" />
            <mxPoint x="440" y="497.5" as="targetPoint" />
          </mxGeometry>
        </mxCell>
        <mxCell id="030wjntbdd0vXokFga_K-98" value="isActive" style="ellipse;whiteSpace=wrap;html=1;" parent="1" vertex="1">
          <mxGeometry x="470" y="527.5" width="120" height="40" as="geometry" />
        </mxCell>
        <mxCell id="030wjntbdd0vXokFga_K-99" value="" style="endArrow=none;html=1;rounded=0;" parent="1" source="030wjntbdd0vXokFga_K-98" edge="1">
          <mxGeometry width="50" height="50" relative="1" as="geometry">
            <mxPoint x="399.28932188134524" y="597.5" as="sourcePoint" />
            <mxPoint x="440" y="547.5" as="targetPoint" />
          </mxGeometry>
        </mxCell>
        <mxCell id="030wjntbdd0vXokFga_K-100" value="Writes" style="rhombus;whiteSpace=wrap;html=1;" parent="1" vertex="1">
          <mxGeometry x="340" y="240" width="80" height="80" as="geometry" />
        </mxCell>
        <mxCell id="030wjntbdd0vXokFga_K-101" value="" style="endArrow=none;html=1;rounded=0;exitX=1;exitY=0.5;exitDx=0;exitDy=0;entryX=0.5;entryY=0;entryDx=0;entryDy=0;" parent="1" source="030wjntbdd0vXokFga_K-100" target="030wjntbdd0vXokFga_K-90" edge="1">
          <mxGeometry width="50" height="50" relative="1" as="geometry">
            <mxPoint x="490" y="290" as="sourcePoint" />
            <mxPoint x="540" y="240" as="targetPoint" />
          </mxGeometry>
        </mxCell>
        <mxCell id="030wjntbdd0vXokFga_K-103" value="" style="endArrow=none;html=1;rounded=0;entryX=0;entryY=0.5;entryDx=0;entryDy=0;exitX=1;exitY=1;exitDx=0;exitDy=0;" parent="1" source="030wjntbdd0vXokFga_K-1" target="030wjntbdd0vXokFga_K-100" edge="1">
          <mxGeometry width="50" height="50" relative="1" as="geometry">
            <mxPoint x="280" y="270" as="sourcePoint" />
            <mxPoint x="350.71067811865476" y="220" as="targetPoint" />
          </mxGeometry>
        </mxCell>
        <mxCell id="030wjntbdd0vXokFga_K-104" value="(1, 1)&lt;span style=&quot;color: rgba(0, 0, 0, 0); font-family: monospace; font-size: 0px; text-align: start; text-wrap: nowrap;&quot;&gt;%3CmxGraphModel%3E%3Croot%3E%3CmxCell%20id%3D%220%22%2F%3E%3CmxCell%20id%3D%221%22%20parent%3D%220%22%2F%3E%3CmxCell%20id%3D%222%22%20value%3D%22countryName%22%20style%3D%22ellipse%3BwhiteSpace%3Dwrap%3Bhtml%3D1%3B%22%20vertex%3D%221%22%20parent%3D%221%22%3E%3CmxGeometry%20x%3D%22170%22%20y%3D%22540%22%20width%3D%22120%22%20height%3D%2240%22%20as%3D%22geometry%22%2F%3E%3C%2FmxCell%3E%3CmxCell%20id%3D%223%22%20value%3D%22%22%20style%3D%22endArrow%3Dnone%3Bhtml%3D1%3Brounded%3D0%3B%22%20edge%3D%221%22%20source%3D%222%22%20parent%3D%221%22%3E%3CmxGeometry%20width%3D%2250%22%20height%3D%2250%22%20relative%3D%221%22%20as%3D%22geometry%22%3E%3CmxPoint%20x%3D%22109.28932188134524%22%20y%3D%22610%22%20as%3D%22sourcePoint%22%2F%3E%3CmxPoint%20x%3D%22160%22%20y%3D%22560%22%20as%3D%22targetPoint%22%2F%3E%3C%2FmxGeometry%3E%3C%2FmxCell%3E%3C%2Froot%3E%3C%2FmxGraphModel%3E&lt;/span&gt;" style="text;html=1;align=center;verticalAlign=middle;whiteSpace=wrap;rounded=0;" parent="1" vertex="1">
          <mxGeometry x="280" y="268.75" width="50" height="22.5" as="geometry" />
        </mxCell>
        <mxCell id="030wjntbdd0vXokFga_K-105" value="(0, N)&lt;span style=&quot;color: rgba(0, 0, 0, 0); font-family: monospace; font-size: 0px; text-align: start; text-wrap: nowrap;&quot;&gt;%3CmxGraphModel%3E%3Croot%3E%3CmxCell%20id%3D%220%22%2F%3E%3CmxCell%20id%3D%221%22%20parent%3D%220%22%2F%3E%3CmxCell%20id%3D%222%22%20value%3D%22countryName%22%20style%3D%22ellipse%3BwhiteSpace%3Dwrap%3Bhtml%3D1%3B%22%20vertex%3D%221%22%20parent%3D%221%22%3E%3CmxGeometry%20x%3D%22170%22%20y%3D%22540%22%20width%3D%22120%22%20height%3D%2240%22%20as%3D%22geometry%22%2F%3E%3C%2FmxCell%3E%3CmxCell%20id%3D%223%22%20value%3D%22%22%20style%3D%22endArrow%3Dnone%3Bhtml%3D1%3Brounded%3D0%3B%22%20edge%3D%221%22%20source%3D%222%22%20parent%3D%221%22%3E%3CmxGeometry%20width%3D%2250%22%20height%3D%2250%22%20relative%3D%221%22%20as%3D%22geometry%22%3E%3CmxPoint%20x%3D%22109.28932188134524%22%20y%3D%22610%22%20as%3D%22sourcePoint%22%2F%3E%3CmxPoint%20x%3D%22160%22%20y%3D%22560%22%20as%3D%22targetPoint%22%2F%3E%3C%2FmxGeometry%3E%3C%2FmxCell%3E%3C%2Froot%3E%3C%2FmxGraphModel%3E&lt;/span&gt;" style="text;html=1;align=center;verticalAlign=middle;whiteSpace=wrap;rounded=0;" parent="1" vertex="1">
          <mxGeometry x="490" y="303.75" width="50" height="22.5" as="geometry" />
        </mxCell>
        <mxCell id="030wjntbdd0vXokFga_K-106" value="1:N&lt;span style=&quot;color: rgba(0, 0, 0, 0); font-family: monospace; font-size: 0px; text-align: start; text-wrap: nowrap;&quot;&gt;%3CmxGraphModel%3E%3Croot%3E%3CmxCell%20id%3D%220%22%2F%3E%3CmxCell%20id%3D%221%22%20parent%3D%220%22%2F%3E%3CmxCell%20id%3D%222%22%20value%3D%22countryName%22%20style%3D%22ellipse%3BwhiteSpace%3Dwrap%3Bhtml%3D1%3B%22%20vertex%3D%221%22%20parent%3D%221%22%3E%3CmxGeometry%20x%3D%22170%22%20y%3D%22540%22%20width%3D%22120%22%20height%3D%2240%22%20as%3D%22geometry%22%2F%3E%3C%2FmxCell%3E%3CmxCell%20id%3D%223%22%20value%3D%22%22%20style%3D%22endArrow%3Dnone%3Bhtml%3D1%3Brounded%3D0%3B%22%20edge%3D%221%22%20source%3D%222%22%20parent%3D%221%22%3E%3CmxGeometry%20width%3D%2250%22%20height%3D%2250%22%20relative%3D%221%22%20as%3D%22geometry%22%3E%3CmxPoint%20x%3D%22109.28932188134524%22%20y%3D%22610%22%20as%3D%22sourcePoint%22%2F%3E%3CmxPoint%20x%3D%22160%22%20y%3D%22560%22%20as%3D%22targetPoint%22%2F%3E%3C%2FmxGeometry%3E%3C%2FmxCell%3E%3C%2Froot%3E%3C%2FmxGraphModel%3E&lt;/span&gt;" style="text;html=1;align=center;verticalAlign=middle;whiteSpace=wrap;rounded=0;" parent="1" vertex="1">
          <mxGeometry x="355" y="327.5" width="50" height="22.5" as="geometry" />
        </mxCell>
        <mxCell id="030wjntbdd0vXokFga_K-107" value="Task" style="rounded=0;whiteSpace=wrap;html=1;" parent="1" vertex="1">
          <mxGeometry x="630" y="92.5" width="120" height="40" as="geometry" />
        </mxCell>
        <mxCell id="030wjntbdd0vXokFga_K-116" value="taskId" style="ellipse;whiteSpace=wrap;html=1;" parent="1" vertex="1">
          <mxGeometry x="655" y="42.5" width="120" height="40" as="geometry" />
        </mxCell>
        <mxCell id="030wjntbdd0vXokFga_K-117" value="taskDescription" style="ellipse;whiteSpace=wrap;html=1;" parent="1" vertex="1">
          <mxGeometry x="655" y="-7.5" width="120" height="40" as="geometry" />
        </mxCell>
        <mxCell id="030wjntbdd0vXokFga_K-118" value="isDone" style="ellipse;whiteSpace=wrap;html=1;" parent="1" vertex="1">
          <mxGeometry x="655" y="-57.5" width="120" height="40" as="geometry" />
        </mxCell>
        <mxCell id="030wjntbdd0vXokFga_K-119" value="isCanceled" style="ellipse;whiteSpace=wrap;html=1;" parent="1" vertex="1">
          <mxGeometry x="655" y="-110" width="120" height="40" as="geometry" />
        </mxCell>
        <mxCell id="030wjntbdd0vXokFga_K-120" value="" style="endArrow=none;html=1;rounded=0;" parent="1" source="030wjntbdd0vXokFga_K-119" edge="1">
          <mxGeometry width="50" height="50" relative="1" as="geometry">
            <mxPoint x="584.2893218813452" y="-40" as="sourcePoint" />
            <mxPoint x="630" y="-90" as="targetPoint" />
          </mxGeometry>
        </mxCell>
        <mxCell id="030wjntbdd0vXokFga_K-121" value="" style="endArrow=none;html=1;rounded=0;" parent="1" source="030wjntbdd0vXokFga_K-118" edge="1">
          <mxGeometry width="50" height="50" relative="1" as="geometry">
            <mxPoint x="584.2893218813452" y="12.5" as="sourcePoint" />
            <mxPoint x="630" y="-37.5" as="targetPoint" />
          </mxGeometry>
        </mxCell>
        <mxCell id="030wjntbdd0vXokFga_K-122" value="" style="endArrow=none;html=1;rounded=0;" parent="1" source="030wjntbdd0vXokFga_K-116" edge="1">
          <mxGeometry width="50" height="50" relative="1" as="geometry">
            <mxPoint x="584.2893218813452" y="112.5" as="sourcePoint" />
            <mxPoint x="630" y="62.5" as="targetPoint" />
          </mxGeometry>
        </mxCell>
        <mxCell id="030wjntbdd0vXokFga_K-123" value="" style="endArrow=none;html=1;rounded=0;" parent="1" source="030wjntbdd0vXokFga_K-117" edge="1">
          <mxGeometry width="50" height="50" relative="1" as="geometry">
            <mxPoint x="584.2893218813452" y="62.5" as="sourcePoint" />
            <mxPoint x="630" y="12.5" as="targetPoint" />
          </mxGeometry>
        </mxCell>
        <mxCell id="030wjntbdd0vXokFga_K-124" value="" style="endArrow=none;html=1;rounded=0;exitX=0;exitY=0;exitDx=0;exitDy=0;" parent="1" edge="1" source="030wjntbdd0vXokFga_K-107">
          <mxGeometry width="50" height="50" relative="1" as="geometry">
            <mxPoint x="630" y="90" as="sourcePoint" />
            <mxPoint x="630" y="-90" as="targetPoint" />
          </mxGeometry>
        </mxCell>
        <mxCell id="eTTKq-E3Ro3JIMpIY3FR-2" value="Sets" style="rhombus;whiteSpace=wrap;html=1;" parent="1" vertex="1">
          <mxGeometry x="10" y="390" width="80" height="80" as="geometry" />
        </mxCell>
        <mxCell id="eTTKq-E3Ro3JIMpIY3FR-3" value="" style="endArrow=none;html=1;rounded=0;entryX=0;entryY=1;entryDx=0;entryDy=0;exitX=0.5;exitY=0;exitDx=0;exitDy=0;" parent="1" source="eTTKq-E3Ro3JIMpIY3FR-2" target="030wjntbdd0vXokFga_K-1" edge="1">
          <mxGeometry width="50" height="50" relative="1" as="geometry">
            <mxPoint x="50" y="365" as="sourcePoint" />
            <mxPoint x="120.71067811865476" y="315" as="targetPoint" />
          </mxGeometry>
        </mxCell>
        <mxCell id="eTTKq-E3Ro3JIMpIY3FR-4" value="" style="endArrow=none;html=1;rounded=0;entryX=0.5;entryY=1;entryDx=0;entryDy=0;exitX=1;exitY=0;exitDx=0;exitDy=0;" parent="1" source="eTTKq-E3Ro3JIMpIY3FR-5" target="eTTKq-E3Ro3JIMpIY3FR-2" edge="1">
          <mxGeometry width="50" height="50" relative="1" as="geometry">
            <mxPoint x="-30" y="550" as="sourcePoint" />
            <mxPoint x="20" y="500" as="targetPoint" />
          </mxGeometry>
        </mxCell>
        <mxCell id="eTTKq-E3Ro3JIMpIY3FR-5" value="Goal" style="rounded=0;whiteSpace=wrap;html=1;" parent="1" vertex="1">
          <mxGeometry x="-70" y="567.5" width="120" height="40" as="geometry" />
        </mxCell>
        <mxCell id="eTTKq-E3Ro3JIMpIY3FR-6" value="(1, 1)&lt;span style=&quot;color: rgba(0, 0, 0, 0); font-family: monospace; font-size: 0px; text-align: start; text-wrap: nowrap;&quot;&gt;%3CmxGraphModel%3E%3Croot%3E%3CmxCell%20id%3D%220%22%2F%3E%3CmxCell%20id%3D%221%22%20parent%3D%220%22%2F%3E%3CmxCell%20id%3D%222%22%20value%3D%22countryName%22%20style%3D%22ellipse%3BwhiteSpace%3Dwrap%3Bhtml%3D1%3B%22%20vertex%3D%221%22%20parent%3D%221%22%3E%3CmxGeometry%20x%3D%22170%22%20y%3D%22540%22%20width%3D%22120%22%20height%3D%2240%22%20as%3D%22geometry%22%2F%3E%3C%2FmxCell%3E%3CmxCell%20id%3D%223%22%20value%3D%22%22%20style%3D%22endArrow%3Dnone%3Bhtml%3D1%3Brounded%3D0%3B%22%20edge%3D%221%22%20source%3D%222%22%20parent%3D%221%22%3E%3CmxGeometry%20width%3D%2250%22%20height%3D%2250%22%20relative%3D%221%22%20as%3D%22geometry%22%3E%3CmxPoint%20x%3D%22109.28932188134524%22%20y%3D%22610%22%20as%3D%22sourcePoint%22%2F%3E%3CmxPoint%20x%3D%22160%22%20y%3D%22560%22%20as%3D%22targetPoint%22%2F%3E%3C%2FmxGeometry%3E%3C%2FmxCell%3E%3C%2Froot%3E%3C%2FmxGraphModel%3E&lt;/span&gt;" style="text;html=1;align=center;verticalAlign=middle;whiteSpace=wrap;rounded=0;" parent="1" vertex="1">
          <mxGeometry x="80" y="268.75" width="50" height="22.5" as="geometry" />
        </mxCell>
        <mxCell id="eTTKq-E3Ro3JIMpIY3FR-7" value="(0, N)&lt;span style=&quot;color: rgba(0, 0, 0, 0); font-family: monospace; font-size: 0px; text-align: start; text-wrap: nowrap;&quot;&gt;%3CmxGraphModel%3E%3Croot%3E%3CmxCell%20id%3D%220%22%2F%3E%3CmxCell%20id%3D%221%22%20parent%3D%220%22%2F%3E%3CmxCell%20id%3D%222%22%20value%3D%22countryName%22%20style%3D%22ellipse%3BwhiteSpace%3Dwrap%3Bhtml%3D1%3B%22%20vertex%3D%221%22%20parent%3D%221%22%3E%3CmxGeometry%20x%3D%22170%22%20y%3D%22540%22%20width%3D%22120%22%20height%3D%2240%22%20as%3D%22geometry%22%2F%3E%3C%2FmxCell%3E%3CmxCell%20id%3D%223%22%20value%3D%22%22%20style%3D%22endArrow%3Dnone%3Bhtml%3D1%3Brounded%3D0%3B%22%20edge%3D%221%22%20source%3D%222%22%20parent%3D%221%22%3E%3CmxGeometry%20width%3D%2250%22%20height%3D%2250%22%20relative%3D%221%22%20as%3D%22geometry%22%3E%3CmxPoint%20x%3D%22109.28932188134524%22%20y%3D%22610%22%20as%3D%22sourcePoint%22%2F%3E%3CmxPoint%20x%3D%22160%22%20y%3D%22560%22%20as%3D%22targetPoint%22%2F%3E%3C%2FmxGeometry%3E%3C%2FmxCell%3E%3C%2Froot%3E%3C%2FmxGraphModel%3E&lt;/span&gt;" style="text;html=1;align=center;verticalAlign=middle;whiteSpace=wrap;rounded=0;" parent="1" vertex="1">
          <mxGeometry y="539" width="50" height="22.5" as="geometry" />
        </mxCell>
        <mxCell id="eTTKq-E3Ro3JIMpIY3FR-8" value="1:N" style="text;html=1;align=center;verticalAlign=middle;whiteSpace=wrap;rounded=0;" parent="1" vertex="1">
          <mxGeometry x="-35" y="420" width="50" height="22.5" as="geometry" />
        </mxCell>
        <mxCell id="eTTKq-E3Ro3JIMpIY3FR-9" value="goalId" style="ellipse;whiteSpace=wrap;html=1;" parent="1" vertex="1">
          <mxGeometry x="-60" y="619.5" width="120" height="40" as="geometry" />
        </mxCell>
        <mxCell id="eTTKq-E3Ro3JIMpIY3FR-10" value="" style="endArrow=none;html=1;rounded=0;entryX=0;entryY=1;entryDx=0;entryDy=0;" parent="1" edge="1">
          <mxGeometry width="50" height="50" relative="1" as="geometry">
            <mxPoint x="-70" y="890" as="sourcePoint" />
            <mxPoint x="-70" y="607.5" as="targetPoint" />
          </mxGeometry>
        </mxCell>
        <mxCell id="eTTKq-E3Ro3JIMpIY3FR-11" value="goalTitle" style="ellipse;whiteSpace=wrap;html=1;" parent="1" vertex="1">
          <mxGeometry x="-60" y="669.5" width="120" height="40" as="geometry" />
        </mxCell>
        <mxCell id="eTTKq-E3Ro3JIMpIY3FR-12" value="" style="endArrow=none;html=1;rounded=0;" parent="1" source="eTTKq-E3Ro3JIMpIY3FR-11" edge="1">
          <mxGeometry width="50" height="50" relative="1" as="geometry">
            <mxPoint x="-120.71067811865476" y="739.5" as="sourcePoint" />
            <mxPoint x="-70" y="689.5" as="targetPoint" />
          </mxGeometry>
        </mxCell>
        <mxCell id="eTTKq-E3Ro3JIMpIY3FR-13" value="" style="endArrow=none;html=1;rounded=0;entryX=0;entryY=0.5;entryDx=0;entryDy=0;" parent="1" target="eTTKq-E3Ro3JIMpIY3FR-9" edge="1">
          <mxGeometry width="50" height="50" relative="1" as="geometry">
            <mxPoint x="-70" y="639.5" as="sourcePoint" />
            <mxPoint y="639.5" as="targetPoint" />
          </mxGeometry>
        </mxCell>
        <mxCell id="eTTKq-E3Ro3JIMpIY3FR-14" value="goalDescription" style="ellipse;whiteSpace=wrap;html=1;" parent="1" vertex="1">
          <mxGeometry x="-60" y="719.5" width="120" height="40" as="geometry" />
        </mxCell>
        <mxCell id="eTTKq-E3Ro3JIMpIY3FR-15" value="" style="endArrow=none;html=1;rounded=0;" parent="1" source="eTTKq-E3Ro3JIMpIY3FR-14" edge="1">
          <mxGeometry width="50" height="50" relative="1" as="geometry">
            <mxPoint x="-120.71067811865476" y="789.5" as="sourcePoint" />
            <mxPoint x="-70" y="739.5" as="targetPoint" />
          </mxGeometry>
        </mxCell>
        <mxCell id="eTTKq-E3Ro3JIMpIY3FR-16" value="startDate" style="ellipse;whiteSpace=wrap;html=1;" parent="1" vertex="1">
          <mxGeometry x="-60" y="771.5" width="120" height="40" as="geometry" />
        </mxCell>
        <mxCell id="eTTKq-E3Ro3JIMpIY3FR-18" value="endDate" style="ellipse;whiteSpace=wrap;html=1;" parent="1" vertex="1">
          <mxGeometry x="-60" y="821.5" width="120" height="40" as="geometry" />
        </mxCell>
        <mxCell id="eTTKq-E3Ro3JIMpIY3FR-19" value="" style="endArrow=none;html=1;rounded=0;" parent="1" source="eTTKq-E3Ro3JIMpIY3FR-18" edge="1">
          <mxGeometry width="50" height="50" relative="1" as="geometry">
            <mxPoint x="-120.71067811865476" y="891.5" as="sourcePoint" />
            <mxPoint x="-70" y="841.5" as="targetPoint" />
          </mxGeometry>
        </mxCell>
        <mxCell id="eTTKq-E3Ro3JIMpIY3FR-20" value="" style="endArrow=none;html=1;rounded=0;entryX=0;entryY=0.5;entryDx=0;entryDy=0;" parent="1" target="eTTKq-E3Ro3JIMpIY3FR-16" edge="1">
          <mxGeometry width="50" height="50" relative="1" as="geometry">
            <mxPoint x="-70" y="791.5" as="sourcePoint" />
            <mxPoint y="791.5" as="targetPoint" />
          </mxGeometry>
        </mxCell>
        <mxCell id="eTTKq-E3Ro3JIMpIY3FR-21" value="isCanceled" style="ellipse;whiteSpace=wrap;html=1;" parent="1" vertex="1">
          <mxGeometry x="-60" y="871.5" width="120" height="40" as="geometry" />
        </mxCell>
        <mxCell id="eTTKq-E3Ro3JIMpIY3FR-22" value="" style="endArrow=none;html=1;rounded=0;" parent="1" source="eTTKq-E3Ro3JIMpIY3FR-21" edge="1">
          <mxGeometry width="50" height="50" relative="1" as="geometry">
            <mxPoint x="-120.71067811865476" y="941.5" as="sourcePoint" />
            <mxPoint x="-70" y="891.5" as="targetPoint" />
          </mxGeometry>
        </mxCell>
        <mxCell id="eTTKq-E3Ro3JIMpIY3FR-23" value="Objective" style="rounded=0;whiteSpace=wrap;html=1;" parent="1" vertex="1">
          <mxGeometry x="-540" y="567.5" width="120" height="40" as="geometry" />
        </mxCell>
        <mxCell id="eTTKq-E3Ro3JIMpIY3FR-24" value="objectiveId" style="ellipse;whiteSpace=wrap;html=1;" parent="1" vertex="1">
          <mxGeometry x="-530" y="619.5" width="120" height="40" as="geometry" />
        </mxCell>
        <mxCell id="eTTKq-E3Ro3JIMpIY3FR-25" value="" style="endArrow=none;html=1;rounded=0;entryX=0;entryY=1;entryDx=0;entryDy=0;" parent="1" edge="1">
          <mxGeometry width="50" height="50" relative="1" as="geometry">
            <mxPoint x="-540" y="890" as="sourcePoint" />
            <mxPoint x="-540" y="607.5" as="targetPoint" />
          </mxGeometry>
        </mxCell>
        <mxCell id="eTTKq-E3Ro3JIMpIY3FR-26" value="objectiveTitle" style="ellipse;whiteSpace=wrap;html=1;" parent="1" vertex="1">
          <mxGeometry x="-530" y="669.5" width="120" height="40" as="geometry" />
        </mxCell>
        <mxCell id="eTTKq-E3Ro3JIMpIY3FR-27" value="" style="endArrow=none;html=1;rounded=0;" parent="1" source="eTTKq-E3Ro3JIMpIY3FR-26" edge="1">
          <mxGeometry width="50" height="50" relative="1" as="geometry">
            <mxPoint x="-590.7106781186548" y="739.5" as="sourcePoint" />
            <mxPoint x="-540" y="689.5" as="targetPoint" />
          </mxGeometry>
        </mxCell>
        <mxCell id="eTTKq-E3Ro3JIMpIY3FR-28" value="" style="endArrow=none;html=1;rounded=0;entryX=0;entryY=0.5;entryDx=0;entryDy=0;" parent="1" target="eTTKq-E3Ro3JIMpIY3FR-24" edge="1">
          <mxGeometry width="50" height="50" relative="1" as="geometry">
            <mxPoint x="-540" y="639.5" as="sourcePoint" />
            <mxPoint x="-470" y="639.5" as="targetPoint" />
          </mxGeometry>
        </mxCell>
        <mxCell id="eTTKq-E3Ro3JIMpIY3FR-31" value="startDate" style="ellipse;whiteSpace=wrap;html=1;" parent="1" vertex="1">
          <mxGeometry x="-530" y="719.5" width="120" height="40" as="geometry" />
        </mxCell>
        <mxCell id="eTTKq-E3Ro3JIMpIY3FR-32" value="endDate" style="ellipse;whiteSpace=wrap;html=1;" parent="1" vertex="1">
          <mxGeometry x="-530" y="769.5" width="120" height="40" as="geometry" />
        </mxCell>
        <mxCell id="eTTKq-E3Ro3JIMpIY3FR-33" value="" style="endArrow=none;html=1;rounded=0;" parent="1" source="eTTKq-E3Ro3JIMpIY3FR-32" edge="1">
          <mxGeometry width="50" height="50" relative="1" as="geometry">
            <mxPoint x="-590.7106781186548" y="839.5" as="sourcePoint" />
            <mxPoint x="-540" y="789.5" as="targetPoint" />
          </mxGeometry>
        </mxCell>
        <mxCell id="eTTKq-E3Ro3JIMpIY3FR-34" value="" style="endArrow=none;html=1;rounded=0;entryX=0;entryY=0.5;entryDx=0;entryDy=0;" parent="1" target="eTTKq-E3Ro3JIMpIY3FR-31" edge="1">
          <mxGeometry width="50" height="50" relative="1" as="geometry">
            <mxPoint x="-540" y="739.5" as="sourcePoint" />
            <mxPoint x="-470" y="739.5" as="targetPoint" />
          </mxGeometry>
        </mxCell>
        <mxCell id="eTTKq-E3Ro3JIMpIY3FR-35" value="isCanceled" style="ellipse;whiteSpace=wrap;html=1;" parent="1" vertex="1">
          <mxGeometry x="-530" y="871.5" width="120" height="40" as="geometry" />
        </mxCell>
        <mxCell id="eTTKq-E3Ro3JIMpIY3FR-36" value="" style="endArrow=none;html=1;rounded=0;" parent="1" source="eTTKq-E3Ro3JIMpIY3FR-35" edge="1">
          <mxGeometry width="50" height="50" relative="1" as="geometry">
            <mxPoint x="-590.7106781186548" y="941.5" as="sourcePoint" />
            <mxPoint x="-540" y="892" as="targetPoint" />
          </mxGeometry>
        </mxCell>
        <mxCell id="eTTKq-E3Ro3JIMpIY3FR-37" value="Has" style="rhombus;whiteSpace=wrap;html=1;" parent="1" vertex="1">
          <mxGeometry x="-280" y="547.5" width="80" height="80" as="geometry" />
        </mxCell>
        <mxCell id="eTTKq-E3Ro3JIMpIY3FR-38" value="" style="endArrow=none;html=1;rounded=0;exitX=1;exitY=0.5;exitDx=0;exitDy=0;entryX=0;entryY=0.5;entryDx=0;entryDy=0;" parent="1" source="eTTKq-E3Ro3JIMpIY3FR-23" target="eTTKq-E3Ro3JIMpIY3FR-37" edge="1">
          <mxGeometry width="50" height="50" relative="1" as="geometry">
            <mxPoint x="-190" y="680" as="sourcePoint" />
            <mxPoint x="-140" y="630" as="targetPoint" />
          </mxGeometry>
        </mxCell>
        <mxCell id="eTTKq-E3Ro3JIMpIY3FR-39" value="" style="endArrow=none;html=1;rounded=0;exitX=1;exitY=0.5;exitDx=0;exitDy=0;entryX=0;entryY=0.5;entryDx=0;entryDy=0;" parent="1" source="eTTKq-E3Ro3JIMpIY3FR-37" target="eTTKq-E3Ro3JIMpIY3FR-5" edge="1">
          <mxGeometry width="50" height="50" relative="1" as="geometry">
            <mxPoint x="-220" y="590" as="sourcePoint" />
            <mxPoint x="-80" y="590" as="targetPoint" />
          </mxGeometry>
        </mxCell>
        <mxCell id="eTTKq-E3Ro3JIMpIY3FR-40" value="(1, 1)&lt;span style=&quot;color: rgba(0, 0, 0, 0); font-family: monospace; font-size: 0px; text-align: start; text-wrap: nowrap;&quot;&gt;%3CmxGraphModel%3E%3Croot%3E%3CmxCell%20id%3D%220%22%2F%3E%3CmxCell%20id%3D%221%22%20parent%3D%220%22%2F%3E%3CmxCell%20id%3D%222%22%20value%3D%22countryName%22%20style%3D%22ellipse%3BwhiteSpace%3Dwrap%3Bhtml%3D1%3B%22%20vertex%3D%221%22%20parent%3D%221%22%3E%3CmxGeometry%20x%3D%22170%22%20y%3D%22540%22%20width%3D%22120%22%20height%3D%2240%22%20as%3D%22geometry%22%2F%3E%3C%2FmxCell%3E%3CmxCell%20id%3D%223%22%20value%3D%22%22%20style%3D%22endArrow%3Dnone%3Bhtml%3D1%3Brounded%3D0%3B%22%20edge%3D%221%22%20source%3D%222%22%20parent%3D%221%22%3E%3CmxGeometry%20width%3D%2250%22%20height%3D%2250%22%20relative%3D%221%22%20as%3D%22geometry%22%3E%3CmxPoint%20x%3D%22109.28932188134524%22%20y%3D%22610%22%20as%3D%22sourcePoint%22%2F%3E%3CmxPoint%20x%3D%22160%22%20y%3D%22560%22%20as%3D%22targetPoint%22%2F%3E%3C%2FmxGeometry%3E%3C%2FmxCell%3E%3C%2Froot%3E%3C%2FmxGraphModel%3E&lt;/span&gt;" style="text;html=1;align=center;verticalAlign=middle;whiteSpace=wrap;rounded=0;" parent="1" vertex="1">
          <mxGeometry x="-140" y="590" width="50" height="22.5" as="geometry" />
        </mxCell>
        <mxCell id="eTTKq-E3Ro3JIMpIY3FR-41" value="(1, N)&lt;span style=&quot;color: rgba(0, 0, 0, 0); font-family: monospace; font-size: 0px; text-align: start; text-wrap: nowrap;&quot;&gt;%3CmxGraphModel%3E%3Croot%3E%3CmxCell%20id%3D%220%22%2F%3E%3CmxCell%20id%3D%221%22%20parent%3D%220%22%2F%3E%3CmxCell%20id%3D%222%22%20value%3D%22countryName%22%20style%3D%22ellipse%3BwhiteSpace%3Dwrap%3Bhtml%3D1%3B%22%20vertex%3D%221%22%20parent%3D%221%22%3E%3CmxGeometry%20x%3D%22170%22%20y%3D%22540%22%20width%3D%22120%22%20height%3D%2240%22%20as%3D%22geometry%22%2F%3E%3C%2FmxCell%3E%3CmxCell%20id%3D%223%22%20value%3D%22%22%20style%3D%22endArrow%3Dnone%3Bhtml%3D1%3Brounded%3D0%3B%22%20edge%3D%221%22%20source%3D%222%22%20parent%3D%221%22%3E%3CmxGeometry%20width%3D%2250%22%20height%3D%2250%22%20relative%3D%221%22%20as%3D%22geometry%22%3E%3CmxPoint%20x%3D%22109.28932188134524%22%20y%3D%22610%22%20as%3D%22sourcePoint%22%2F%3E%3CmxPoint%20x%3D%22160%22%20y%3D%22560%22%20as%3D%22targetPoint%22%2F%3E%3C%2FmxGeometry%3E%3C%2FmxCell%3E%3C%2Froot%3E%3C%2FmxGraphModel%3E&lt;/span&gt;" style="text;html=1;align=center;verticalAlign=middle;whiteSpace=wrap;rounded=0;" parent="1" vertex="1">
          <mxGeometry x="-400" y="590" width="50" height="22.5" as="geometry" />
        </mxCell>
        <mxCell id="eTTKq-E3Ro3JIMpIY3FR-42" value="1:N" style="text;html=1;align=center;verticalAlign=middle;whiteSpace=wrap;rounded=0;" parent="1" vertex="1">
          <mxGeometry x="-265" y="637" width="50" height="22.5" as="geometry" />
        </mxCell>
        <mxCell id="eTTKq-E3Ro3JIMpIY3FR-44" value="studySessionId" style="ellipse;whiteSpace=wrap;html=1;" parent="1" vertex="1">
          <mxGeometry x="-210" y="351.25" width="120" height="40" as="geometry" />
        </mxCell>
        <mxCell id="eTTKq-E3Ro3JIMpIY3FR-46" value="date" style="ellipse;whiteSpace=wrap;html=1;" parent="1" vertex="1">
          <mxGeometry x="-210" y="398.75" width="120" height="40" as="geometry" />
        </mxCell>
        <mxCell id="eTTKq-E3Ro3JIMpIY3FR-47" value="" style="endArrow=none;html=1;rounded=0;entryX=1;entryY=0.5;entryDx=0;entryDy=0;exitX=0;exitY=0.5;exitDx=0;exitDy=0;" parent="1" source="eTTKq-E3Ro3JIMpIY3FR-46" target="eTTKq-E3Ro3JIMpIY3FR-58" edge="1">
          <mxGeometry width="50" height="50" relative="1" as="geometry">
            <mxPoint x="-510.71067811865476" y="473" as="sourcePoint" />
            <mxPoint x="-460" y="423" as="targetPoint" />
          </mxGeometry>
        </mxCell>
        <mxCell id="eTTKq-E3Ro3JIMpIY3FR-48" value="" style="endArrow=none;html=1;rounded=0;entryX=0;entryY=0.5;entryDx=0;entryDy=0;exitX=1;exitY=0;exitDx=0;exitDy=0;" parent="1" source="eTTKq-E3Ro3JIMpIY3FR-58" target="eTTKq-E3Ro3JIMpIY3FR-44" edge="1">
          <mxGeometry width="50" height="50" relative="1" as="geometry">
            <mxPoint x="-460" y="373" as="sourcePoint" />
            <mxPoint x="-390" y="373" as="targetPoint" />
          </mxGeometry>
        </mxCell>
        <mxCell id="eTTKq-E3Ro3JIMpIY3FR-49" value="totalHours" style="ellipse;whiteSpace=wrap;html=1;" parent="1" vertex="1">
          <mxGeometry x="-210" y="450" width="120" height="40" as="geometry" />
        </mxCell>
        <mxCell id="eTTKq-E3Ro3JIMpIY3FR-50" value="" style="endArrow=none;html=1;rounded=0;entryX=1;entryY=1;entryDx=0;entryDy=0;exitX=0;exitY=0.5;exitDx=0;exitDy=0;" parent="1" source="eTTKq-E3Ro3JIMpIY3FR-49" target="eTTKq-E3Ro3JIMpIY3FR-58" edge="1">
          <mxGeometry width="50" height="50" relative="1" as="geometry">
            <mxPoint x="-180" y="467.5" as="sourcePoint" />
            <mxPoint x="-460" y="472.5" as="targetPoint" />
          </mxGeometry>
        </mxCell>
        <mxCell id="eTTKq-E3Ro3JIMpIY3FR-57" value="" style="endArrow=none;html=1;rounded=0;entryX=0;entryY=0.5;entryDx=0;entryDy=0;exitX=0.5;exitY=0;exitDx=0;exitDy=0;" parent="1" source="eTTKq-E3Ro3JIMpIY3FR-58" target="030wjntbdd0vXokFga_K-1" edge="1">
          <mxGeometry width="50" height="50" relative="1" as="geometry">
            <mxPoint y="230" as="sourcePoint" />
            <mxPoint x="50" y="170" as="targetPoint" />
            <Array as="points">
              <mxPoint x="-290" y="320" />
            </Array>
          </mxGeometry>
        </mxCell>
        <mxCell id="eTTKq-E3Ro3JIMpIY3FR-58" value="Starts" style="rhombus;whiteSpace=wrap;html=1;" parent="1" vertex="1">
          <mxGeometry x="-330" y="377.5" width="80" height="80" as="geometry" />
        </mxCell>
        <mxCell id="eTTKq-E3Ro3JIMpIY3FR-60" value="earnId" style="ellipse;whiteSpace=wrap;html=1;" parent="1" vertex="1">
          <mxGeometry x="300" y="41.25" width="120" height="40" as="geometry" />
        </mxCell>
        <mxCell id="eTTKq-E3Ro3JIMpIY3FR-61" value="" style="endArrow=none;html=1;rounded=0;entryX=1;entryY=0.5;entryDx=0;entryDy=0;" parent="1" source="eTTKq-E3Ro3JIMpIY3FR-60" target="030wjntbdd0vXokFga_K-62" edge="1">
          <mxGeometry width="50" height="50" relative="1" as="geometry">
            <mxPoint x="229.28932188134524" y="111.25" as="sourcePoint" />
            <mxPoint x="275" y="61.25" as="targetPoint" />
          </mxGeometry>
        </mxCell>
        <mxCell id="eTTKq-E3Ro3JIMpIY3FR-62" value="" style="endArrow=none;html=1;rounded=0;entryX=0.5;entryY=1;entryDx=0;entryDy=0;exitX=0.5;exitY=0;exitDx=0;exitDy=0;" parent="1" source="eTTKq-E3Ro3JIMpIY3FR-23" target="eTTKq-E3Ro3JIMpIY3FR-58" edge="1">
          <mxGeometry width="50" height="50" relative="1" as="geometry">
            <mxPoint x="-480" y="546.7893218813452" as="sourcePoint" />
            <mxPoint x="-480" y="496.78932188134524" as="targetPoint" />
            <Array as="points">
              <mxPoint x="-290" y="480" />
            </Array>
          </mxGeometry>
        </mxCell>
        <mxCell id="eTTKq-E3Ro3JIMpIY3FR-64" value="(0, N)&lt;span style=&quot;color: rgba(0, 0, 0, 0); font-family: monospace; font-size: 0px; text-align: start; text-wrap: nowrap;&quot;&gt;%3CmxGraphModel%3E%3Croot%3E%3CmxCell%20id%3D%220%22%2F%3E%3CmxCell%20id%3D%221%22%20parent%3D%220%22%2F%3E%3CmxCell%20id%3D%222%22%20value%3D%22countryName%22%20style%3D%22ellipse%3BwhiteSpace%3Dwrap%3Bhtml%3D1%3B%22%20vertex%3D%221%22%20parent%3D%221%22%3E%3CmxGeometry%20x%3D%22170%22%20y%3D%22540%22%20width%3D%22120%22%20height%3D%2240%22%20as%3D%22geometry%22%2F%3E%3C%2FmxCell%3E%3CmxCell%20id%3D%223%22%20value%3D%22%22%20style%3D%22endArrow%3Dnone%3Bhtml%3D1%3Brounded%3D0%3B%22%20edge%3D%221%22%20source%3D%222%22%20parent%3D%221%22%3E%3CmxGeometry%20width%3D%2250%22%20height%3D%2250%22%20relative%3D%221%22%20as%3D%22geometry%22%3E%3CmxPoint%20x%3D%22109.28932188134524%22%20y%3D%22610%22%20as%3D%22sourcePoint%22%2F%3E%3CmxPoint%20x%3D%22160%22%20y%3D%22560%22%20as%3D%22targetPoint%22%2F%3E%3C%2FmxGeometry%3E%3C%2FmxCell%3E%3C%2Froot%3E%3C%2FmxGraphModel%3E&lt;/span&gt;" style="text;html=1;align=center;verticalAlign=middle;whiteSpace=wrap;rounded=0;" parent="1" vertex="1">
          <mxGeometry x="-505" y="536.25" width="50" height="22.5" as="geometry" />
        </mxCell>
        <mxCell id="eTTKq-E3Ro3JIMpIY3FR-65" value="N:M" style="text;html=1;align=center;verticalAlign=middle;whiteSpace=wrap;rounded=0;" parent="1" vertex="1">
          <mxGeometry x="-380" y="406.25" width="50" height="22.5" as="geometry" />
        </mxCell>
        <mxCell id="eTTKq-E3Ro3JIMpIY3FR-66" value="(0, N)&lt;span style=&quot;color: rgba(0, 0, 0, 0); font-family: monospace; font-size: 0px; text-align: start; text-wrap: nowrap;&quot;&gt;%3CmxGraphModel%3E%3Croot%3E%3CmxCell%20id%3D%220%22%2F%3E%3CmxCell%20id%3D%221%22%20parent%3D%220%22%2F%3E%3CmxCell%20id%3D%222%22%20value%3D%22countryName%22%20style%3D%22ellipse%3BwhiteSpace%3Dwrap%3Bhtml%3D1%3B%22%20vertex%3D%221%22%20parent%3D%221%22%3E%3CmxGeometry%20x%3D%22170%22%20y%3D%22540%22%20width%3D%22120%22%20height%3D%2240%22%20as%3D%22geometry%22%2F%3E%3C%2FmxCell%3E%3CmxCell%20id%3D%223%22%20value%3D%22%22%20style%3D%22endArrow%3Dnone%3Bhtml%3D1%3Brounded%3D0%3B%22%20edge%3D%221%22%20source%3D%222%22%20parent%3D%221%22%3E%3CmxGeometry%20width%3D%2250%22%20height%3D%2250%22%20relative%3D%221%22%20as%3D%22geometry%22%3E%3CmxPoint%20x%3D%22109.28932188134524%22%20y%3D%22610%22%20as%3D%22sourcePoint%22%2F%3E%3CmxPoint%20x%3D%22160%22%20y%3D%22560%22%20as%3D%22targetPoint%22%2F%3E%3C%2FmxGeometry%3E%3C%2FmxCell%3E%3C%2Froot%3E%3C%2FmxGraphModel%3E&lt;/span&gt;" style="text;html=1;align=center;verticalAlign=middle;whiteSpace=wrap;rounded=0;" parent="1" vertex="1">
          <mxGeometry x="15" y="217.5" width="50" height="22.5" as="geometry" />
        </mxCell>
        <mxCell id="hwL36RV66zW68a952LhO-1" value="Writes" style="rhombus;whiteSpace=wrap;html=1;" vertex="1" parent="1">
          <mxGeometry x="475" y="110" width="80" height="80" as="geometry" />
        </mxCell>
        <mxCell id="hwL36RV66zW68a952LhO-2" value="" style="endArrow=none;html=1;rounded=0;exitX=1;exitY=0;exitDx=0;exitDy=0;entryX=0;entryY=0.5;entryDx=0;entryDy=0;" edge="1" parent="1" source="030wjntbdd0vXokFga_K-1" target="hwL36RV66zW68a952LhO-1">
          <mxGeometry width="50" height="50" relative="1" as="geometry">
            <mxPoint x="340" y="220" as="sourcePoint" />
            <mxPoint x="390" y="170" as="targetPoint" />
          </mxGeometry>
        </mxCell>
        <mxCell id="hwL36RV66zW68a952LhO-3" value="" style="endArrow=none;html=1;rounded=0;entryX=0;entryY=1;entryDx=0;entryDy=0;exitX=1;exitY=0.5;exitDx=0;exitDy=0;" edge="1" parent="1" source="hwL36RV66zW68a952LhO-1" target="030wjntbdd0vXokFga_K-107">
          <mxGeometry width="50" height="50" relative="1" as="geometry">
            <mxPoint x="590" y="200" as="sourcePoint" />
            <mxPoint x="640" y="150" as="targetPoint" />
          </mxGeometry>
        </mxCell>
        <mxCell id="hwL36RV66zW68a952LhO-4" value="(0, N)&lt;span style=&quot;color: rgba(0, 0, 0, 0); font-family: monospace; font-size: 0px; text-align: start; text-wrap: nowrap;&quot;&gt;%3CmxGraphModel%3E%3Croot%3E%3CmxCell%20id%3D%220%22%2F%3E%3CmxCell%20id%3D%221%22%20parent%3D%220%22%2F%3E%3CmxCell%20id%3D%222%22%20value%3D%22countryName%22%20style%3D%22ellipse%3BwhiteSpace%3Dwrap%3Bhtml%3D1%3B%22%20vertex%3D%221%22%20parent%3D%221%22%3E%3CmxGeometry%20x%3D%22170%22%20y%3D%22540%22%20width%3D%22120%22%20height%3D%2240%22%20as%3D%22geometry%22%2F%3E%3C%2FmxCell%3E%3CmxCell%20id%3D%223%22%20value%3D%22%22%20style%3D%22endArrow%3Dnone%3Bhtml%3D1%3Brounded%3D0%3B%22%20edge%3D%221%22%20source%3D%222%22%20parent%3D%221%22%3E%3CmxGeometry%20width%3D%2250%22%20height%3D%2250%22%20relative%3D%221%22%20as%3D%22geometry%22%3E%3CmxPoint%20x%3D%22109.28932188134524%22%20y%3D%22610%22%20as%3D%22sourcePoint%22%2F%3E%3CmxPoint%20x%3D%22160%22%20y%3D%22560%22%20as%3D%22targetPoint%22%2F%3E%3C%2FmxGeometry%3E%3C%2FmxCell%3E%3C%2Froot%3E%3C%2FmxGraphModel%3E&lt;/span&gt;" style="text;html=1;align=center;verticalAlign=middle;whiteSpace=wrap;rounded=0;" vertex="1" parent="1">
          <mxGeometry x="590" y="150" width="50" height="22.5" as="geometry" />
        </mxCell>
        <mxCell id="hwL36RV66zW68a952LhO-5" value="(1, 1)&lt;span style=&quot;color: rgba(0, 0, 0, 0); font-family: monospace; font-size: 0px; text-align: start; text-wrap: nowrap;&quot;&gt;%3CmxGraphModel%3E%3Croot%3E%3CmxCell%20id%3D%220%22%2F%3E%3CmxCell%20id%3D%221%22%20parent%3D%220%22%2F%3E%3CmxCell%20id%3D%222%22%20value%3D%22countryName%22%20style%3D%22ellipse%3BwhiteSpace%3Dwrap%3Bhtml%3D1%3B%22%20vertex%3D%221%22%20parent%3D%221%22%3E%3CmxGeometry%20x%3D%22170%22%20y%3D%22540%22%20width%3D%22120%22%20height%3D%2240%22%20as%3D%22geometry%22%2F%3E%3C%2FmxCell%3E%3CmxCell%20id%3D%223%22%20value%3D%22%22%20style%3D%22endArrow%3Dnone%3Bhtml%3D1%3Brounded%3D0%3B%22%20edge%3D%221%22%20source%3D%222%22%20parent%3D%221%22%3E%3CmxGeometry%20width%3D%2250%22%20height%3D%2250%22%20relative%3D%221%22%20as%3D%22geometry%22%3E%3CmxPoint%20x%3D%22109.28932188134524%22%20y%3D%22610%22%20as%3D%22sourcePoint%22%2F%3E%3CmxPoint%20x%3D%22160%22%20y%3D%22560%22%20as%3D%22targetPoint%22%2F%3E%3C%2FmxGeometry%3E%3C%2FmxCell%3E%3C%2Froot%3E%3C%2FmxGraphModel%3E&lt;/span&gt;" style="text;html=1;align=center;verticalAlign=middle;whiteSpace=wrap;rounded=0;" vertex="1" parent="1">
          <mxGeometry x="390" y="167.5" width="50" height="22.5" as="geometry" />
        </mxCell>
        <mxCell id="hwL36RV66zW68a952LhO-6" value="1:N&lt;span style=&quot;color: rgba(0, 0, 0, 0); font-family: monospace; font-size: 0px; text-align: start; text-wrap: nowrap;&quot;&gt;%3CmxGraphModel%3E%3Croot%3E%3CmxCell%20id%3D%220%22%2F%3E%3CmxCell%20id%3D%221%22%20parent%3D%220%22%2F%3E%3CmxCell%20id%3D%222%22%20value%3D%22countryName%22%20style%3D%22ellipse%3BwhiteSpace%3Dwrap%3Bhtml%3D1%3B%22%20vertex%3D%221%22%20parent%3D%221%22%3E%3CmxGeometry%20x%3D%22170%22%20y%3D%22540%22%20width%3D%22120%22%20height%3D%2240%22%20as%3D%22geometry%22%2F%3E%3C%2FmxCell%3E%3CmxCell%20id%3D%223%22%20value%3D%22%22%20style%3D%22endArrow%3Dnone%3Bhtml%3D1%3Brounded%3D0%3B%22%20edge%3D%221%22%20source%3D%222%22%20parent%3D%221%22%3E%3CmxGeometry%20width%3D%2250%22%20height%3D%2250%22%20relative%3D%221%22%20as%3D%22geometry%22%3E%3CmxPoint%20x%3D%22109.28932188134524%22%20y%3D%22610%22%20as%3D%22sourcePoint%22%2F%3E%3CmxPoint%20x%3D%22160%22%20y%3D%22560%22%20as%3D%22targetPoint%22%2F%3E%3C%2FmxGeometry%3E%3C%2FmxCell%3E%3C%2Froot%3E%3C%2FmxGraphModel%3E&lt;/span&gt;" style="text;html=1;align=center;verticalAlign=middle;whiteSpace=wrap;rounded=0;" vertex="1" parent="1">
          <mxGeometry x="490" y="87.5" width="50" height="22.5" as="geometry" />
        </mxCell>
        <mxCell id="hwL36RV66zW68a952LhO-7" value="totalHours" style="ellipse;whiteSpace=wrap;html=1;" vertex="1" parent="1">
          <mxGeometry x="-530" y="821.5" width="120" height="40" as="geometry" />
        </mxCell>
        <mxCell id="hwL36RV66zW68a952LhO-8" value="" style="endArrow=none;html=1;rounded=0;" edge="1" parent="1" source="hwL36RV66zW68a952LhO-7">
          <mxGeometry width="50" height="50" relative="1" as="geometry">
            <mxPoint x="-590.7106781186548" y="891.5" as="sourcePoint" />
            <mxPoint x="-540" y="841.5" as="targetPoint" />
          </mxGeometry>
        </mxCell>
      </root>
    </mxGraphModel>
  </diagram>
</mxfile>
